<?xml version="1.0" standalone="no"?>
<!DOCTYPE svg PUBLIC "-//W3C//DTD SVG 20010904//EN"
 "http://www.w3.org/TR/2001/REC-SVG-20010904/DTD/svg10.dtd">
<svg version="1.0" xmlns="http://www.w3.org/2000/svg"
 width="512.000000pt" height="512.000000pt" viewBox="0 0 512.000000 512.000000"
 preserveAspectRatio="xMidYMid meet">
<metadata>
Created by potrace 1.14, written by Peter Selinger 2001-2017
</metadata>
<g transform="translate(0.000000,512.000000) scale(0.100000,-0.100000)"
fill="#000000" stroke="none">
<path d="M345 5107 c-154 -40 -285 -172 -329 -332 -17 -64 -16 -183 2 -240 35
-112 123 -218 224 -270 l58 -30 1 -245 c1 -326 2 -336 47 -429 51 -107 172
-204 293 -236 27 -7 126 -13 240 -14 106 -1 194 -3 196 -4 1 -1 -11 -30 -27
-64 -28 -60 -85 -220 -94 -265 -3 -13 -7 -34 -11 -48 -9 -41 -25 -143 -29
-180 l-3 -35 -305 -3 -306 -2 -4 102 c-3 89 -7 107 -27 134 -68 92 -203 79
-255 -23 -14 -28 -16 -78 -16 -360 0 -301 2 -331 19 -370 14 -30 31 -48 60
-62 51 -26 84 -26 138 0 64 31 83 74 83 189 l0 90 310 0 310 0 0 -24 c0 -36
46 -188 80 -263 36 -80 124 -212 178 -270 l40 -43 -256 -1 c-141 0 -268 -2
-282 -5 -163 -28 -307 -149 -354 -299 -24 -76 -24 -81 -25 -361 l-1 -261 -52
-24 c-108 -51 -208 -178 -237 -304 -20 -86 -1 -233 41 -306 155 -276 498 -330
713 -112 93 95 142 228 132 358 -13 158 -104 293 -244 363 l-53 26 0 256 c1
281 3 294 65 342 l29 23 403 3 403 3 1 -98 c0 -54 2 -109 5 -123 26 -148 137
-285 278 -344 60 -25 83 -29 209 -33 l117 -5 0 242 c0 222 2 244 20 280 55
108 219 101 265 -12 12 -31 15 -85 15 -273 l0 -235 149 0 150 0 3 253 c3 274
3 271 63 319 42 33 128 32 170 0 61 -48 64 -63 65 -330 l0 -243 111 2 c167 2
250 30 346 114 58 51 105 122 128 192 21 67 23 85 24 196 l1 97 392 0 391 0
42 -25 c70 -41 75 -64 75 -353 l0 -249 -52 -24 c-69 -32 -167 -130 -199 -199
-105 -221 -29 -471 179 -597 73 -43 110 -54 205 -59 199 -9 375 116 443 315
30 90 28 221 -6 301 -47 109 -132 201 -228 244 l-42 19 -1 256 c-1 302 -2 315
-31 384 -46 110 -120 190 -222 240 -83 41 -135 47 -407 47 -137 0 -249 3 -249
8 0 4 8 14 18 23 58 51 152 187 195 280 31 68 64 172 72 230 4 24 9 47 11 51
3 5 142 8 309 8 l303 0 4 -103 c2 -83 7 -107 23 -128 47 -62 126 -85 186 -53
87 44 89 55 89 439 0 370 -2 380 -78 423 -62 35 -120 28 -173 -20 -36 -32 -49
-78 -49 -174 l0 -84 -305 0 -305 0 -1 23 c-1 24 -2 32 -25 157 -18 97 -81 290
-119 365 l-26 50 213 5 c185 5 221 9 272 28 126 46 231 155 270 277 24 76 24
81 25 361 l1 261 51 24 c95 44 187 149 224 255 21 60 28 180 14 243 -25 113
-116 239 -212 296 -144 84 -324 82 -457 -3 -148 -96 -223 -239 -216 -416 5
-139 83 -271 206 -353 25 -17 55 -33 68 -37 l22 -7 0 -255 c0 -236 -2 -258
-20 -294 -13 -26 -34 -47 -60 -60 -37 -19 -58 -20 -325 -20 -174 0 -285 4
-285 10 0 17 -185 195 -268 258 -143 107 -293 186 -459 241 -203 67 -325 86
-543 86 -293 0 -493 -46 -745 -171 -169 -84 -293 -173 -434 -311 l-115 -113
-275 0 c-274 0 -274 0 -316 25 -70 41 -75 64 -75 353 l0 247 58 30 c265 137
322 498 112 713 -86 89 -178 131 -300 137 -42 3 -97 -1 -125 -8z m1458 -2156
c323 -156 534 -262 553 -278 41 -34 57 -81 51 -148 -17 -195 -148 -351 -335
-399 -190 -50 -407 40 -508 210 -53 90 -62 135 -63 350 -1 115 2 211 8 226 13
34 66 86 94 91 57 11 86 4 200 -52z m1749 34 c61 -46 63 -54 66 -260 5 -280
-18 -365 -133 -480 -138 -140 -330 -173 -511 -88 -146 67 -247 210 -261 370
-5 54 -2 67 20 106 23 39 39 51 139 100 62 30 214 106 338 167 205 101 229
111 271 107 25 -2 57 -12 71 -22z"/>
</g>
</svg>
